<svg id="logo_copy_2" data-name="logo copy 2" xmlns="http://www.w3.org/2000/svg" width="100" height="25.368" viewBox="0 0 137.969 35">
  <text id="Soft" class="logo-text fill-white" transform="translate(-1.621 34.37) scale(0.09 0.09)">Soft</text>
  <g id="x">
    <path class="fill-white" d="M102.145,35C100.567,35,98,32.309,98,30.8V4.2c0.031-1.53,2.438-4.2,4.15-4.2h22.609c2.771,0,4.889,2.7,4.889,2.7s7.271,11.8,7.468,12.147a4.676,4.676,0,0,1,0,5.4c-0.837,1.428-7.469,12.082-7.469,12.082S127.51,35,124.754,35H102.145Z"/>
    <path id="X_dote" data-name="X dote" class="fill-primary" d="M110.819,18.392l-4.653,5.468A3.324,3.324,0,0,0,105,26.216c0,0.684.45,0.972,1.532,1.942s1.161,1.1,1.86,1.1a3.409,3.409,0,0,0,2.436-1.461l4.921-6.155,4.2,5.165c0.958,1.094,1.71,2.451,2.436,2.451s0.805-.208,1.859-1.166a5.061,5.061,0,0,0,1.762-2.413c0.133-.644-0.647-1.676-1.577-2.716l-4.653-5.468,4.653-5.468a4.125,4.125,0,0,0,1.4-2.585,3.006,3.006,0,0,0-1.6-2.544,2.506,2.506,0,0,0-1.748-.536A4.061,4.061,0,0,0,119.95,8l-4.382,5.165M119.95,8l-4.292,5.255m-4.839,5.137-4.653,5.468m4.216-8.385L107.1,12.243a4.511,4.511,0,0,1-1.435-2.63q0-1.028,1.619-2.486c1.079-.973,1.3-0.892,2.034-0.739,0.682,0.142,1.087.908,2.07,2l2.474,3.289m-3.478,3.794L107.1,12.243"/>
  </g>
</svg>
