<svg id="logo_copy" data-name="logo copy" xmlns="http://www.w3.org/2000/svg" width="100" height="25" viewBox="0 0 100 25">
  <metadata><?xpacket begin="﻿" id="W5M0MpCehiHzreSzNTczkc9d"?>
<x:xmpmeta xmlns:x="adobe:ns:meta/" x:xmptk="Adobe XMP Core 5.6-c138 79.159824, 2016/09/14-01:09:01        ">
   <rdf:RDF xmlns:rdf="http://www.w3.org/1999/02/22-rdf-syntax-ns#">
      <rdf:Description rdf:about=""/>
   </rdf:RDF>
</x:xmpmeta><?xpacket end="w"?></metadata>
  <text id="Soft" class="logo-text fill-dark" transform="translate(-1.175 24.55) scale(0.065 0.064)">Soft</text>
  <g id="x">
    <path class="fill-primary" d="M73.675,25c-1.159,0-3.049-1.923-3.049-3V3c0.023-1.093,1.791-3,3.049-3H90.289a5.351,5.351,0,0,1,3.593,1.928s5.343,8.429,5.487,8.676a3.262,3.262,0,0,1,0,3.856c-0.615,1.02-5.488,8.63-5.488,8.63A5.392,5.392,0,0,1,90.289,25H73.675Z"/>
    <path id="X-2" data-name="X" class="fill-white" d="M80.3,13.137l-3.372,3.906a2.361,2.361,0,0,0-.846,1.683c0,0.489.326,0.694,1.111,1.387s0.841,0.783,1.347.783a2.479,2.479,0,0,0,1.765-1.044l3.567-4.4,3.044,3.689c0.694,0.782,1.239,1.751,1.765,1.751s0.583-.149,1.347-0.833a3.612,3.612,0,0,0,1.276-1.723c0.1-.46-0.468-1.2-1.142-1.94l-3.372-3.906,3.372-3.906a2.932,2.932,0,0,0,1.012-1.846,2.143,2.143,0,0,0-1.161-1.817,1.836,1.836,0,0,0-1.267-.383A2.949,2.949,0,0,0,86.92,5.714L83.745,9.4M86.92,5.714L83.81,9.468M80.3,13.137l-3.372,3.906"/>
    <path id="X_dote" data-name="X dote" class="fill-white" d="M79.987,11.054l-2.38-2.309a3.207,3.207,0,0,1-1.04-1.878,2.781,2.781,0,0,1,1.173-1.776c0.782-.695.941-0.637,1.474-0.528,0.494,0.1.787,0.648,1.5,1.431l1.792,2.349m-2.52,2.71-2.38-2.309"/>
  </g>
</svg>
